<svg xmlns="http://www.w3.org/2000/svg" xmlns:xlink="http://www.w3.org/1999/xlink" width="372.997" height="110.517" viewBox="0 0 372.997 110.517">
  <defs>
    <linearGradient id="linear-gradient" x1="0.781" y1="0.5" x2="-1.521" y2="0.5" gradientUnits="objectBoundingBox">
      <stop offset="0" stop-color="#ffd800"/>
      <stop offset="1" stop-color="#f98608"/>
    </linearGradient>
    <linearGradient id="linear-gradient-2" x1="0.758" y1="0.312" x2="-0.394" y2="1.79" gradientUnits="objectBoundingBox">
      <stop offset="0" stop-color="#e82c36"/>
      <stop offset="1" stop-color="#b3005a"/>
    </linearGradient>
    <linearGradient id="linear-gradient-3" x1="-0.399" y1="-0.796" x2="0.541" y2="0.41" gradientUnits="objectBoundingBox">
      <stop offset="0" stop-color="#2e8e5b"/>
      <stop offset="0.39" stop-color="#4da157"/>
      <stop offset="0.768" stop-color="#66b054"/>
      <stop offset="1" stop-color="#6fb653"/>
    </linearGradient>
  </defs>
  <g id="Grupo_5" data-name="Grupo 5" transform="translate(-27.626 -29.585)">
    <path id="Caminho_49" data-name="Caminho 49" d="M13.813,0H359.177A13.813,13.813,0,0,1,372.99,13.813V96.7a13.813,13.813,0,0,1-13.813,13.813H13.813A13.813,13.813,0,0,1,0,96.7V13.813A13.813,13.813,0,0,1,13.813,0Z" transform="translate(27.626 29.585)" fill="#040505"/>
    <path id="Caminho_1" data-name="Caminho 1" d="M583.225,357.591H237.868A13.854,13.854,0,0,0,224.055,371.4v82.884A13.854,13.854,0,0,0,237.868,468.1H583.225a13.854,13.854,0,0,0,13.813-13.813V371.4a13.854,13.854,0,0,0-13.813-13.813Zm0,2.207A11.619,11.619,0,0,1,594.831,371.4v82.884a11.62,11.62,0,0,1-11.606,11.606H237.868a11.62,11.62,0,0,1-11.606-11.606V371.4A11.62,11.62,0,0,1,237.868,359.8Z" transform="translate(-196.415 -328.006)" fill="#959596" fill-rule="evenodd"/>
    <path id="Caminho_2" data-name="Caminho 2" d="M446.965,410.421h5.157V375.879h-5.157v34.535Zm46.437-22.1L487.49,403.3h-.179l-6.133-14.975h-5.555l9.2,20.929-5.246,11.64h5.377l14.171-32.569ZM464.168,406.5c-1.691,0-4.043-.846-4.043-2.929,0-2.668,2.936-3.685,5.466-3.685a9.191,9.191,0,0,1,4.71,1.155,6.25,6.25,0,0,1-6.133,5.466Zm.619-18.928a9.681,9.681,0,0,0-9.2,5.287l4.572,1.912a4.889,4.889,0,0,1,4.71-2.53,4.964,4.964,0,0,1,5.418,4.448v.358a11.4,11.4,0,0,0-5.377-1.334c-4.93,0-9.956,2.709-9.956,7.776a7.982,7.982,0,0,0,8.574,7.6,7.282,7.282,0,0,0,6.58-3.376h.179v2.668h4.978v-13.25a9.474,9.474,0,0,0-10.485-9.557Zm-31.861,4.957H425.6V380.685h7.329a5.92,5.92,0,1,1,0,11.839Zm-.131-16.646H420.419v34.536h5.15V397.352h7.2a10.74,10.74,0,1,0,0-21.452ZM365.415,406.5a7.178,7.178,0,1,1,6.29-7.123,7.151,7.151,0,0,1-6.29,7.123Zm5.92-16.247h-.179a8.153,8.153,0,0,0-6.188-2.626,11.764,11.764,0,0,0,0,23.5,8.016,8.016,0,0,0,6.188-2.667h.179v1.691c0,4.5-2.406,6.875-6.277,6.875a6.5,6.5,0,0,1-5.92-4.18l-4.5,1.87a11.2,11.2,0,0,0,10.416,6.944,10.74,10.74,0,0,0,11.173-12.238V388.331h-4.9v1.911Zm8.457,20.166h5.164V375.879h-5.164v34.535Zm12.775-11.393a6.449,6.449,0,0,1,6.14-6.875,4.545,4.545,0,0,1,4.366,2.5l-10.506,4.359Zm16.027-3.912a10.919,10.919,0,0,0-10.059-7.481,11.166,11.166,0,0,0-11.083,11.75,11.5,11.5,0,0,0,11.688,11.75,11.688,11.688,0,0,0,9.8-5.2l-4.009-2.668a6.71,6.71,0,0,1-5.789,3.252,5.975,5.975,0,0,1-5.7-3.561l15.711-6.5-.536-1.334ZM283.41,391.246v4.985h11.929a10.4,10.4,0,0,1-2.75,6.277,12.212,12.212,0,0,1-9.213,3.651,13.266,13.266,0,1,1,0-26.532,12.718,12.718,0,0,1,8.993,3.561l3.513-3.52a17.39,17.39,0,0,0-12.507-5.026,18.248,18.248,0,1,0,0,36.5,16.679,16.679,0,0,0,12.734-5.122,16.5,16.5,0,0,0,4.318-11.689,16.115,16.115,0,0,0-.268-3.115Zm30.61,15.271a7.144,7.144,0,1,1,6.635-7.123,6.8,6.8,0,0,1-6.635,7.123Zm0-18.873a11.75,11.75,0,1,0,11.8,11.75,11.586,11.586,0,0,0-11.8-11.75Zm25.735,18.873a7.144,7.144,0,1,1,6.628-7.123,6.8,6.8,0,0,1-6.628,7.123Zm0-18.873a11.75,11.75,0,1,0,11.792,11.75,11.579,11.579,0,0,0-11.785-11.764Z" transform="translate(-123.878 -297.945)" fill="#fff" fill-rule="evenodd"/>
    <path id="Caminho_3" data-name="Caminho 3" d="M235.314,365.271a5.5,5.5,0,0,0-1.279,3.878V430.2a5.5,5.5,0,0,0,1.279,3.878l.206.2,34.2-34.2v-.811l-34.2-34.2Z" transform="translate(-178.852 -314.798)" fill="#42bff2" fill-rule="evenodd"/>
    <path id="Caminho_4" data-name="Caminho 4" d="M258.342,396.929l-11.4-11.4v-.812l11.4-11.4.254.145,13.51,7.673a4.194,4.194,0,0,1,0,7.969l-13.51,7.673Z" transform="translate(-156.068 -300.274)" fill-rule="evenodd" fill="url(#linear-gradient)"/>
    <path id="Caminho_5" data-name="Caminho 5" d="M280.555,389.275l-11.688-11.688-34.378,34.377a4.489,4.489,0,0,0,5.734.172Z" transform="translate(-178.027 -292.772)" fill-rule="evenodd" fill="url(#linear-gradient-2)"/>
    <path id="Caminho_6" data-name="Caminho 6" d="M280.549,388.605l-40.325-22.916a4.489,4.489,0,0,0-5.734.172l34.378,34.378Z" transform="translate(-178.021 -315.423)" fill-rule="evenodd" fill="url(#linear-gradient-3)"/>
    <path id="Caminho_7" data-name="Caminho 7" d="M267.516,379.117h2.943a6.257,6.257,0,1,0,0-12.507h-2.943Zm-2.125,2.063V364.6h5.067a8.249,8.249,0,0,1,6.113,2.3,8.938,8.938,0,0,1,0,11.97,8.249,8.249,0,0,1-6.112,2.3Z" transform="translate(-123.556 -315.65)" fill="#fff" fill-rule="evenodd"/>
    <path id="Caminho_8" data-name="Caminho 8" d="M267.693,379.292v.275h2.943a6.766,6.766,0,0,0,4.744-11.324h0a6.476,6.476,0,0,0-4.744-1.733H267.4v13.063h.275V379.3h.275V367.067h2.668a5.941,5.941,0,0,1,4.352,1.574h0a5.982,5.982,0,0,1-4.352,10.375h-2.943v.275h0Zm-2.124,2.063v.275h-.275V364.5h5.349a8.511,8.511,0,0,1,6.3,2.386,9.24,9.24,0,0,1,0,12.376,8.513,8.513,0,0,1-6.3,2.386h-5.067v-.275h0V381.1h5.067a7.954,7.954,0,0,0,5.913-2.221,8.677,8.677,0,0,0,0-11.578,7.949,7.949,0,0,0-5.913-2.221h-4.813v16.3Z" transform="translate(-123.719 -315.824)" fill="#fff" fill-rule="evenodd"/>
    <rect id="Retângulo_3" data-name="Retângulo 3" width="2.125" height="16.577" transform="translate(158.302 48.926)" fill="#fff"/>
    <path id="Caminho_9" data-name="Caminho 9" d="M271.525,381.362h.275v-16.3h1.574v16.006h-1.85v.275h0v.275h2.406V364.489H271.25v17.127h.275Z" transform="translate(-113.223 -315.852)" fill="#fff" fill-rule="evenodd"/>
    <path id="Caminho_10" data-name="Caminho 10" d="M278.882,381.751a6.187,6.187,0,0,1-3.534-1.183,5.458,5.458,0,0,1-2.255-3.307l1.946-.791a4.457,4.457,0,0,0,1.423,2.3,3.61,3.61,0,0,0,2.42.942,3.879,3.879,0,0,0,2.372-.729,2.338,2.338,0,0,0,.983-1.98,2.544,2.544,0,0,0-.983-2.138,10.227,10.227,0,0,0-3.115-1.375A8.322,8.322,0,0,1,274.8,371.7a3.747,3.747,0,0,1-1.135-2.812,4.125,4.125,0,0,1,1.41-3.1,5.185,5.185,0,0,1,3.678-1.319,5.335,5.335,0,0,1,3.438,1.052,4.9,4.9,0,0,1,1.712,2.3l-1.939.811a2.908,2.908,0,0,0-1.031-1.458,3.63,3.63,0,0,0-4.215,0,2.063,2.063,0,0,0-.873,1.705,1.925,1.925,0,0,0,.8,1.56,7.681,7.681,0,0,0,2.351,1.148,19.874,19.874,0,0,1,2.063.763,9.331,9.331,0,0,1,1.664.983A3.9,3.9,0,0,1,284,374.862a4.914,4.914,0,0,1,.426,2.118,4.571,4.571,0,0,1-.495,2.152,4.063,4.063,0,0,1-1.32,1.506,6.535,6.535,0,0,1-1.774.846,6.609,6.609,0,0,1-1.959.268Z" transform="translate(-109.971 -315.877)" fill="#fff" fill-rule="evenodd"/>
    <path id="Caminho_11" data-name="Caminho 11" d="M279.111,382.015v-.275a5.917,5.917,0,0,1-3.376-1.127,5.2,5.2,0,0,1-2.145-3.149l-.268.069.1.254L275.37,377l-.1-.254-.268.069a4.708,4.708,0,0,0,1.505,2.441h0a3.9,3.9,0,0,0,2.606,1,4.168,4.168,0,0,0,2.537-.784,2.613,2.613,0,0,0,1.093-2.207,2.805,2.805,0,0,0-1.093-2.358,10.307,10.307,0,0,0-3.2-1.444h0a8.012,8.012,0,0,1-3.225-1.733,3.438,3.438,0,0,1-1.052-2.613,3.836,3.836,0,0,1,1.327-2.9,4.9,4.9,0,0,1,3.493-1.244,5.045,5.045,0,0,1,3.252,1,4.584,4.584,0,0,1,1.623,2.166l.268-.083-.1-.254-1.946.812.11.254.268-.069a3.158,3.158,0,0,0-1.121-1.6h0a3.891,3.891,0,0,0-4.558,0h0a2.372,2.372,0,0,0-.969,1.918,2.206,2.206,0,0,0,.9,1.774h0a7.912,7.912,0,0,0,2.434,1.189h0a20.25,20.25,0,0,1,2.021.756h0a9,9,0,0,1,1.616.956h0a3.64,3.64,0,0,1,1.189,1.424,4.658,4.658,0,0,1,.4,2,4.291,4.291,0,0,1-.467,2.029,3.771,3.771,0,0,1-1.231,1.375h0a6.289,6.289,0,0,1-1.692.811,6.389,6.389,0,0,1-1.863.275v.55a6.873,6.873,0,0,0,2.028-.3,6.768,6.768,0,0,0,1.843-.88h0a4.308,4.308,0,0,0,1.375-1.609,4.811,4.811,0,0,0,.53-2.282,5.216,5.216,0,0,0-.454-2.235,4.22,4.22,0,0,0-1.375-1.636h0a9.7,9.7,0,0,0-1.712-1.011h0a19.666,19.666,0,0,0-2.062-.777h0a7.349,7.349,0,0,1-2.262-1.1h0a1.643,1.643,0,0,1-.687-1.375,1.808,1.808,0,0,1,.763-1.485h0a3,3,0,0,1,1.925-.618,2.962,2.962,0,0,1,1.945.6h0a2.618,2.618,0,0,1,.935,1.313l.082.31,2.235-.928.234-.1-.076-.241a5.136,5.136,0,0,0-1.8-2.434,5.6,5.6,0,0,0-3.6-1.114,5.453,5.453,0,0,0-3.871,1.375,4.4,4.4,0,0,0-1.5,3.307,4.035,4.035,0,0,0,1.217,3.011,8.586,8.586,0,0,0,3.438,1.856h0a10.024,10.024,0,0,1,3.025,1.375,2.256,2.256,0,0,1,.873,1.925,2.062,2.062,0,0,1-.873,1.76,3.61,3.61,0,0,1-2.207.688,3.328,3.328,0,0,1-2.241-.873h0a4.125,4.125,0,0,1-1.334-2.166l-.083-.31-2.241.907-.22.089.055.234A5.738,5.738,0,0,0,275.4,381a6.466,6.466,0,0,0,3.686,1.224Z" transform="translate(-110.207 -316.141)" fill="#fff" fill-rule="evenodd"/>
    <path id="Caminho_12" data-name="Caminho 12" d="M280.4,372.416h3.568a2.75,2.75,0,0,0,2.152-.9,2.853,2.853,0,0,0,0-3.981,2.75,2.75,0,0,0-2.152-.907H280.4Zm0,8.753h-2.1V364.592h5.652a5.232,5.232,0,0,1,3.644,1.375,4.812,4.812,0,0,1,0,7.061,5.233,5.233,0,0,1-3.644,1.375h-3.52Z" transform="translate(-100.781 -315.666)" fill="#fff" fill-rule="evenodd"/>
    <path id="Caminho_13" data-name="Caminho 13" d="M280.6,372.591v.275h3.568a3.019,3.019,0,0,0,2.358-.99h0a3.129,3.129,0,0,0,0-4.353h0a3.018,3.018,0,0,0-2.358-1h-3.843v6.339h.275v-.275h.275v-5.5h3.293a2.468,2.468,0,0,1,1.946.818h0a2.572,2.572,0,0,1,0,3.61h0a2.469,2.469,0,0,1-1.946.811H280.6v.275h0Zm0,8.752h.275v.275H278.2V364.491h5.927a5.5,5.5,0,0,1,3.83,1.471h0a5.095,5.095,0,0,1,0,7.467h0a5.5,5.5,0,0,1-3.83,1.478h-3.245v6.436h-.55v-6.992h3.8a4.95,4.95,0,0,0,3.438-1.327h0a4.544,4.544,0,0,0,0-6.655h0a4.964,4.964,0,0,0-3.438-1.327h-5.377v16.013h1.85Z" transform="translate(-100.974 -315.84)" fill="#fff" fill-rule="evenodd"/>
    <path id="Caminho_14" data-name="Caminho 14" d="M286.839,377.893a6.373,6.373,0,0,0,9.007,0,7.068,7.068,0,0,0,0-9.516,6.373,6.373,0,0,0-9.007,0A7.075,7.075,0,0,0,286.839,377.893Zm10.581,1.375a8.608,8.608,0,0,1-12.156,0,8.938,8.938,0,0,1,0-12.294,8.575,8.575,0,0,1,12.143,0,8.938,8.938,0,0,1,0,12.28Z" transform="translate(-92.825 -315.917)" fill="#fff" fill-rule="evenodd"/>
    <path id="Caminho_15" data-name="Caminho 15" d="M287,378.067l-.2.193a6.649,6.649,0,0,0,9.4,0,7.336,7.336,0,0,0,0-9.907h0a6.649,6.649,0,0,0-9.4,0h0a7.35,7.35,0,0,0,0,9.907l.2-.193.2-.2a6.8,6.8,0,0,1,0-9.131h0a6.1,6.1,0,0,1,8.615,0h0a6.793,6.793,0,0,1,0,9.131,6.092,6.092,0,0,1-8.615,0Zm10.581,1.375.2.193a8.876,8.876,0,0,1-12.548,0h0a9.234,9.234,0,0,1,0-12.678h0a8.856,8.856,0,0,1,12.541,0,9.206,9.206,0,0,1,0,12.665l-.2-.193-.2-.193a8.649,8.649,0,0,0,0-11.894,8.305,8.305,0,0,0-11.751,0h0a8.677,8.677,0,0,0,0,11.908h0a8.333,8.333,0,0,0,11.757,0Z" transform="translate(-93.009 -316.092)" fill="#fff" fill-rule="evenodd"/>
    <path id="Caminho_16" data-name="Caminho 16" d="M290.063,381.166V364.589h2.592l8.058,12.9h.089l-.089-3.2v-9.7h2.131v16.577h-2.214L292.2,367.642h-.089l.089,3.2v10.327Z" transform="translate(-80.057 -315.677)" fill="#fff" fill-rule="evenodd"/>
    <path id="Caminho_17" data-name="Caminho 17" d="M290.229,381.356h.275v-16.3h2.166l8.058,12.9h.529l-.1-3.472v-9.419h1.581v16h-1.794l-8.429-13.524h-.529l.1,3.472V381.06h-1.856v.275h0v.275h2.406V371.022l-.089-3.2h-.275v.275h.089v-.275l-.234.144,8.512,13.648h2.654V364.49h-2.682v9.983l.089,3.2h.275V377.4h-.089v.275l.234-.144L292.979,364.5h-3.018v17.127h.268Z" transform="translate(-80.244 -315.846)" fill="#fff" fill-rule="evenodd"/>
    <path id="Caminho_18" data-name="Caminho 18" d="M298.05,366.012h-1.856l1.21-2.963h2.317Zm-1.987,17.876V367.312h2.125v16.577Z" transform="translate(-69.48 -318.379)" fill="#fff" fill-rule="evenodd"/>
    <path id="Caminho_19" data-name="Caminho 19" d="M298.25,366.188v-.275h-1.444l.983-2.413h1.657l-1.437,2.551.241.137h0l.241.137,1.9-3.376h-2.977l-1.43,3.52h2.42l.082-.137-.241-.137Zm-1.987,17.876h.275v-16.3h1.574v16.027h-1.877v.275h0v.275h2.406V367.212H295.96v17.127h.275Z" transform="translate(-69.673 -318.561)" fill="#fff" fill-rule="evenodd"/>
    <path id="Caminho_20" data-name="Caminho 20" d="M303.41,381.166l-5.83-16.577h2.358l4.538,13.448h.089l4.724-13.448h2.358l-6.016,16.577Z" transform="translate(-66.803 -315.677)" fill="#fff" fill-rule="evenodd"/>
    <path id="Caminho_21" data-name="Caminho 21" d="M303.649,381.35l.261-.09-5.7-16.212h1.774l4.538,13.448h.488l4.723-13.448h1.774l-5.817,16.027h-2.063v.275l.261-.09-.261.09v.275h2.42l6.188-17.127h-2.949l-4.813,13.634.261.089v-.275h-.007v.275l.261-.089-4.6-13.641h-2.95l6.03,17.127h.193Z" transform="translate(-67.048 -315.84)" fill="#fff" fill-rule="evenodd"/>
    <path id="Caminho_22" data-name="Caminho 22" d="M313.225,366.6h-7.563v5.26h6.807v1.994h-6.807v5.253h7.563v2.063h-9.681V364.595h9.681Z" transform="translate(-56.293 -315.642)" fill="#fff" fill-rule="evenodd"/>
    <path id="Caminho_23" data-name="Caminho 23" d="M313.389,366.8v-.275h-7.824v5.81h6.807v1.437h-6.807v5.81h7.563v1.485H304V365.042h9.124v1.76h.55v-2.31H303.447v17.127h10.231v-2.585h-7.563v-4.7h6.807v-2.544h-6.807v-4.7h7.563v-.275Z" transform="translate(-56.457 -315.834)" fill="#fff" fill-rule="evenodd"/>
    <path id="Caminho_24" data-name="Caminho 24" d="M308.255,381.166V364.589h2.131v14.542h7.178v2.063Z" transform="translate(-47.989 -315.677)" fill="#fff" fill-rule="evenodd"/>
    <path id="Caminho_25" data-name="Caminho 25" d="M308.435,381.344h.275v-16.3h1.574v14.542h7.178v1.485h-9.028v.275h0v.275h9.585v-2.585h-7.178V364.492H308.16v17.127h.275Z" transform="translate(-48.135 -315.835)" fill="#fff" fill-rule="evenodd"/>
    <path id="Caminho_26" data-name="Caminho 26" d="M314.607,381.166V364.589H317.2l8.058,12.9h.089l-.089-3.2v-9.7h2.131v16.577h-2.221l-8.429-13.524h-.117l.089,3.2v10.327Z" transform="translate(-36.788 -315.677)" fill="#fff" fill-rule="evenodd"/>
    <path id="Caminho_27" data-name="Caminho 27" d="M314.764,381.356h.275v-16.3h2.166l8.058,12.9h.529l-.1-3.472v-9.419h1.581v16h-1.836l-8.429-13.524H316.5l.1,3.479V381.06h-1.85v.275h0v.275h2.406V371.022l-.089-3.2h-.275v.275h.09v-.275l-.234.144,8.512,13.648h2.654V364.49h-2.688v9.983l.089,3.2h.275V377.4h-.048v.275l.234-.144L317.535,364.5H314.51v17.127h.275Z" transform="translate(-36.945 -315.846)" fill="#fff" fill-rule="evenodd"/>
    <path id="Caminho_28" data-name="Caminho 28" d="M324.253,377.893a6.373,6.373,0,0,0,9.007,0,7.068,7.068,0,0,0,0-9.516,6.373,6.373,0,0,0-9.007,0A7.075,7.075,0,0,0,324.253,377.893Zm10.582,1.375a8.608,8.608,0,0,1-12.156,0,8.939,8.939,0,0,1,0-12.294,8.574,8.574,0,0,1,12.142,0,8.938,8.938,0,0,1,0,12.28Z" transform="translate(-26.88 -315.917)" fill="#fff" fill-rule="evenodd"/>
    <path id="Caminho_29" data-name="Caminho 29" d="M324.424,378.067l-.2.193a6.649,6.649,0,0,0,9.4,0,7.336,7.336,0,0,0,0-9.907h0a6.649,6.649,0,0,0-9.4,0h0a7.343,7.343,0,0,0,0,9.907l.2-.193.2-.2a6.8,6.8,0,0,1,0-9.131h0a6.1,6.1,0,0,1,8.615,0h0a6.793,6.793,0,0,1,0,9.131,6.1,6.1,0,0,1-8.615,0Zm10.581,1.375.2.193a8.883,8.883,0,0,1-12.555,0h0a9.234,9.234,0,0,1,0-12.678h0a8.856,8.856,0,0,1,12.541,0,9.2,9.2,0,0,1,0,12.665l-.2-.193-.2-.193a8.649,8.649,0,0,0,0-11.894,8.305,8.305,0,0,0-11.75,0h0a8.684,8.684,0,0,0,0,11.908h0a8.333,8.333,0,0,0,11.757,0Z" transform="translate(-27.051 -316.092)" fill="#fff" fill-rule="evenodd"/>
  </g>
</svg>
