<svg xmlns="http://www.w3.org/2000/svg" width="372.997" height="110.516" viewBox="0 0 372.997 110.516">
  <g id="Grupo_3" data-name="Grupo 3" transform="translate(-27.626 -27.626)">
    <path id="Caminho_48" data-name="Caminho 48" d="M13.813,0H359.177A13.813,13.813,0,0,1,372.99,13.813V96.7a13.813,13.813,0,0,1-13.813,13.813H13.813A13.813,13.813,0,0,1,0,96.7V13.813A13.813,13.813,0,0,1,13.813,0Z" transform="translate(27.626 27.626)" fill="#040505"/>
    <path id="Caminho_30" data-name="Caminho 30" d="M583.225,456.89H237.868A13.854,13.854,0,0,0,224.055,470.7v82.884A13.854,13.854,0,0,0,237.868,567.4H583.225a13.854,13.854,0,0,0,13.813-13.813V470.71A13.854,13.854,0,0,0,583.225,456.9Zm0,2.207A11.619,11.619,0,0,1,594.831,470.7v82.884a11.62,11.62,0,0,1-11.606,11.606H237.868a11.619,11.619,0,0,1-11.606-11.606V470.71A11.62,11.62,0,0,1,237.868,459.1Z" transform="translate(-196.415 -429.258)" fill="#959596" fill-rule="evenodd"/>
    <g id="Grupo_2" data-name="Grupo 2" transform="translate(57.76 45.11)">
      <path id="Caminho_31" data-name="Caminho 31" d="M263.177,479.489a14.294,14.294,0,0,0,13.71-15.986,15,15,0,0,0-13.71,15.986ZM235.07,501.628c-.873-11.771,3.438-18.6,11.324-21.6,9.516-3.616,15.484,4.125,21.4,1.011a20.093,20.093,0,0,1,5.384-1.781A17.878,17.878,0,0,1,290.37,485.5a15.58,15.58,0,0,0,1.589,27.5c-1.664,5.191-8.588,17.959-14.913,17.808a38.608,38.608,0,0,1-8.416-2.145,11.173,11.173,0,0,0-9.625.482c-7.041,2.179-8.464,2.6-14.384-3.534a40.654,40.654,0,0,1-9.551-23.989Z" transform="translate(-234.959 -462.712)" fill="#fff" fill-rule="evenodd"/>
      <path id="Caminho_32" data-name="Caminho 32" d="M288.043,503.688H272.917l-3.17,9.069H262.7l14.762-39.094h6.092l14.789,39.094h-7.082l-3.2-9.069Zm-13.229-5.5h11.331l-5.665-16.233Z" transform="translate(-186.044 -444.8)" fill="#fff" fill-rule="evenodd"/>
      <path id="Caminho_33" data-name="Caminho 33" d="M302.019,492.474a17.354,17.354,0,0,1-3.06,10.76,10.644,10.644,0,0,1-15.876.874v13.751h-6.525V477.664h6.023l.268,2.943a9.577,9.577,0,0,1,7.811-3.493,9.915,9.915,0,0,1,8.34,3.96,17.746,17.746,0,0,1,3.025,11v.406Zm-6.5-.578a12.129,12.129,0,0,0-1.733-6.876,5.638,5.638,0,0,0-4.957-2.544,6,6,0,0,0-5.741,3.3v12.892a6.058,6.058,0,0,0,5.8,3.383,5.619,5.619,0,0,0,4.875-2.51,13.354,13.354,0,0,0,1.76-7.646Z" transform="translate(-161.62 -438.741)" fill="#fff" fill-rule="evenodd"/>
      <path id="Caminho_34" data-name="Caminho 34" d="M312.813,492.474a17.353,17.353,0,0,1-3.06,10.76,10.644,10.644,0,0,1-15.876.874v13.751h-6.525V477.664h6.023l.268,2.943a9.577,9.577,0,0,1,7.811-3.493,9.907,9.907,0,0,1,8.34,3.961,17.747,17.747,0,0,1,3.026,11v.406Zm-6.5-.578a12.129,12.129,0,0,0-1.733-6.876,5.63,5.63,0,0,0-4.957-2.544,6.01,6.01,0,0,0-5.748,3.3v12.891a6.064,6.064,0,0,0,5.8,3.382,5.618,5.618,0,0,0,4.875-2.509,13.363,13.363,0,0,0,1.753-7.646Z" transform="translate(-142.595 -438.741)" fill="#fff" fill-rule="evenodd"/>
      <path id="Caminho_35" data-name="Caminho 35" d="M325.044,503.055a4.7,4.7,0,0,0-1.815-3.967,21.9,21.9,0,0,0-6.532-2.826,31.287,31.287,0,0,1-7.522-3.169,10.059,10.059,0,0,1-5.343-8.766,9.522,9.522,0,0,1,3.857-7.79,15.583,15.583,0,0,1,10-3.06,16.99,16.99,0,0,1,7.274,1.506,11.976,11.976,0,0,1,5.019,4.29,11,11,0,0,1,1.822,6.188h-6.766a6.084,6.084,0,0,0-1.925-4.813,7.913,7.913,0,0,0-5.5-1.733,8.314,8.314,0,0,0-5.171,1.424,4.71,4.71,0,0,0-1.843,3.967,4.283,4.283,0,0,0,1.987,3.575,23.372,23.372,0,0,0,6.552,2.784,29.912,29.912,0,0,1,7.329,3.087,11.687,11.687,0,0,1,4.05,3.974,10.384,10.384,0,0,1,1.293,5.26,9.337,9.337,0,0,1-3.748,7.79,16.249,16.249,0,0,1-10.162,2.888,19.056,19.056,0,0,1-7.8-1.575,13.062,13.062,0,0,1-5.5-4.331,10.809,10.809,0,0,1-1.98-6.449h6.8a6.318,6.318,0,0,0,2.2,5.15,9.628,9.628,0,0,0,6.3,1.822,8.374,8.374,0,0,0,5.335-1.437,4.613,4.613,0,0,0,1.781-3.788Z" transform="translate(-115.676 -445.17)" fill="#fff" fill-rule="evenodd"/>
      <path id="Caminho_36" data-name="Caminho 36" d="M324.891,474.758v7.034h5.122V486.6h-5.122v16.212a3.542,3.542,0,0,0,.688,2.4,3.019,3.019,0,0,0,2.344.742,10.353,10.353,0,0,0,2.283-.268v5.04a15.949,15.949,0,0,1-4.3.612q-7.515,0-7.515-8.292V486.6h-4.813v-4.813h4.813v-7.034Z" transform="translate(-96.354 -442.869)" fill="#fff" fill-rule="evenodd"/>
      <path id="Caminho_37" data-name="Caminho 37" d="M320.209,491.917a17.151,17.151,0,0,1,1.7-7.7,12.377,12.377,0,0,1,4.758-5.26,13.331,13.331,0,0,1,7.026-1.843,12.719,12.719,0,0,1,9.551,3.788,14.962,14.962,0,0,1,3.96,10.045v1.533a17.285,17.285,0,0,1-1.65,7.68,12.279,12.279,0,0,1-4.73,5.239,13.481,13.481,0,0,1-7.1,1.85,12.616,12.616,0,0,1-9.839-4.125,15.717,15.717,0,0,1-3.692-10.918v-.323Zm6.525.55a11.686,11.686,0,0,0,1.856,7.02,6.456,6.456,0,0,0,10.313-.034,12.93,12.93,0,0,0,1.843-7.563,11.56,11.56,0,0,0-1.9-6.979,6.037,6.037,0,0,0-5.143-2.578,5.961,5.961,0,0,0-5.067,2.537,12.672,12.672,0,0,0-1.9,7.6Z" transform="translate(-84.762 -438.742)" fill="#fff" fill-rule="evenodd"/>
      <path id="Caminho_38" data-name="Caminho 38" d="M346.765,483.591a16.738,16.738,0,0,0-2.654-.213,5.989,5.989,0,0,0-6.044,3.438v19.877h-6.525V477.657h6.188l.165,3.238a7.357,7.357,0,0,1,6.552-3.788,6.234,6.234,0,0,1,2.31.378Z" transform="translate(-64.689 -438.742)" fill="#fff" fill-rule="evenodd"/>
      <path id="Caminho_39" data-name="Caminho 39" d="M351.648,507.251a13.49,13.49,0,0,1-10.052-3.906,14.2,14.2,0,0,1-3.857-10.409v-.8a17.352,17.352,0,0,1,1.684-7.769,12.79,12.79,0,0,1,4.71-5.335,12.379,12.379,0,0,1,6.766-1.9,11.372,11.372,0,0,1,9.165,3.795,16.02,16.02,0,0,1,3.239,10.726v2.64H344.326a8.654,8.654,0,0,0,2.4,5.658A7.233,7.233,0,0,0,352.033,502a8.84,8.84,0,0,0,7.3-3.609l3.52,3.355a11.689,11.689,0,0,1-4.668,4.043,14.509,14.509,0,0,1-6.532,1.437Zm-.777-24.91a5.5,5.5,0,0,0-4.332,1.884,9.805,9.805,0,0,0-2.1,5.26H356.86V489a7.984,7.984,0,0,0-1.74-4.978,5.425,5.425,0,0,0-4.249-1.671Z" transform="translate(-53.807 -438.75)" fill="#fff" fill-rule="evenodd"/>
      <path id="Caminho_40" data-name="Caminho 40" d="M264.27,483.278V463.339h6.525a7.565,7.565,0,0,1,4.888,1.375,4.854,4.854,0,0,1,1.637,3.981,4.036,4.036,0,0,1-.8,2.475,5.134,5.134,0,0,1-2.166,1.671,4.621,4.621,0,0,1,2.558,1.719,4.932,4.932,0,0,1,.935,3.018,5.328,5.328,0,0,1-1.739,4.215,7.19,7.19,0,0,1-4.923,1.533Zm2.633-9.289v7.13h4.345a4.208,4.208,0,0,0,2.9-.942,3.328,3.328,0,0,0,1.066-2.606q0-3.582-3.926-3.575Zm0-2.166h3.974a4.186,4.186,0,0,0,2.75-.866,2.9,2.9,0,0,0,1.038-2.338,2.845,2.845,0,0,0-.962-2.392,4.708,4.708,0,0,0-2.922-.75h-3.892Z" transform="translate(-183.289 -463.029)" fill="#fff" fill-rule="evenodd"/>
      <path id="Caminho_41" data-name="Caminho 41" d="M279.656,480.188a5.328,5.328,0,0,1-.357-1.56,5.66,5.66,0,0,1-4.222,1.842,5.228,5.228,0,0,1-3.6-1.238,4.023,4.023,0,0,1-1.375-3.142,4.194,4.194,0,0,1,1.76-3.6,8.292,8.292,0,0,1,4.957-1.279h2.468V470.04a2.861,2.861,0,0,0-.791-2.125,3.2,3.2,0,0,0-2.344-.784,3.728,3.728,0,0,0-2.282.688,2.021,2.021,0,0,0-.915,1.657H270.4a3.514,3.514,0,0,1,.784-2.145,5.437,5.437,0,0,1,2.145-1.636,7.2,7.2,0,0,1,2.97-.6,5.854,5.854,0,0,1,4.016,1.279,4.591,4.591,0,0,1,1.506,3.527v6.827a8.377,8.377,0,0,0,.523,3.252v.22Zm-4.208-1.884a4.393,4.393,0,0,0,2.262-.619,3.726,3.726,0,0,0,1.547-1.615V473H277.27q-4.662,0-4.662,2.75a2.331,2.331,0,0,0,.791,1.877,3.038,3.038,0,0,0,2.049.66Z" transform="translate(-173.001 -459.939)" fill="#fff" fill-rule="evenodd"/>
      <path id="Caminho_42" data-name="Caminho 42" d="M278.321,483.467h-2.544V468.643h2.537v14.824Zm-2.75-18.77a1.546,1.546,0,0,1,.371-1.052,1.685,1.685,0,0,1,2.241,0,1.506,1.506,0,0,1,.385,1.052,1.568,1.568,0,0,1-2.627,1.031,1.484,1.484,0,0,1-.364-1.024Z" transform="translate(-163.368 -463.218)" fill="#fff" fill-rule="evenodd"/>
      <path id="Caminho_43" data-name="Caminho 43" d="M283.693,470.591l3.286-5.411h2.963l-4.861,7.329L290.087,480h-2.936l-3.438-5.549L280.276,480h-2.95l5.005-7.494-4.861-7.329h2.936Z" transform="translate(-160.289 -459.755)" fill="#fff" fill-rule="evenodd"/>
      <path id="Caminho_44" data-name="Caminho 44" d="M292.063,480.188a5.326,5.326,0,0,1-.357-1.561,5.659,5.659,0,0,1-4.222,1.842,5.228,5.228,0,0,1-3.6-1.237,4.022,4.022,0,0,1-1.375-3.142,4.193,4.193,0,0,1,1.76-3.6,8.291,8.291,0,0,1,4.957-1.279h2.468V470.04a2.861,2.861,0,0,0-.791-2.125,3.2,3.2,0,0,0-2.344-.784,3.729,3.729,0,0,0-2.283.688,2.022,2.022,0,0,0-.914,1.657h-2.551a3.513,3.513,0,0,1,.784-2.146,5.436,5.436,0,0,1,2.145-1.636,7.191,7.191,0,0,1,2.97-.6,5.854,5.854,0,0,1,4.016,1.279,4.592,4.592,0,0,1,1.506,3.527v6.827a8.381,8.381,0,0,0,.522,3.252v.22Zm-4.208-1.9a4.389,4.389,0,0,0,2.262-.618,3.726,3.726,0,0,0,1.547-1.616v-3.067h-1.987q-4.655,0-4.662,2.75a2.331,2.331,0,0,0,.791,1.877,3.039,3.039,0,0,0,2.049.674Z" transform="translate(-151.134 -459.939)" fill="#fff" fill-rule="evenodd"/>
      <path id="Caminho_45" data-name="Caminho 45" d="M295.14,467.614a7.637,7.637,0,0,0-1.244-.1,3.342,3.342,0,0,0-3.39,2.124v10.54h-2.537V465.358h2.468l.041,1.712a3.946,3.946,0,0,1,3.534-1.987,2.6,2.6,0,0,1,1.128.193Z" transform="translate(-141.506 -459.933)" fill="#fff" fill-rule="evenodd"/>
      <path id="Caminho_46" data-name="Caminho 46" d="M296.123,465.363l.076,1.856a5.4,5.4,0,0,1,4.441-2.138q4.7,0,4.744,5.308v9.8h-2.537v-9.811a3.384,3.384,0,0,0-.736-2.365,2.928,2.928,0,0,0-2.241-.77,3.684,3.684,0,0,0-2.166.688,4.447,4.447,0,0,0-1.451,1.726v10.561h-2.537V465.363Z" transform="translate(-131.378 -459.938)" fill="#fff" fill-rule="evenodd"/>
      <path id="Caminho_47" data-name="Caminho 47" d="M308.528,480.188a5.324,5.324,0,0,1-.357-1.561,5.66,5.66,0,0,1-4.222,1.842,5.228,5.228,0,0,1-3.6-1.237,4.021,4.021,0,0,1-1.375-3.142,4.194,4.194,0,0,1,1.76-3.6,8.292,8.292,0,0,1,4.958-1.279h2.468V470.04a2.859,2.859,0,0,0-.791-2.125,3.2,3.2,0,0,0-2.345-.784,3.729,3.729,0,0,0-2.283.688,2.022,2.022,0,0,0-.914,1.657h-2.551a3.514,3.514,0,0,1,.784-2.145,5.445,5.445,0,0,1,2.145-1.636,7.2,7.2,0,0,1,2.97-.6,5.853,5.853,0,0,1,4.015,1.279,4.592,4.592,0,0,1,1.506,3.527v6.827a8.382,8.382,0,0,0,.523,3.252v.22ZM304.32,478.3a4.4,4.4,0,0,0,2.262-.619,3.733,3.733,0,0,0,1.547-1.616V473h-1.987q-4.655,0-4.662,2.75a2.331,2.331,0,0,0,.791,1.877,3.038,3.038,0,0,0,2.049.66Z" transform="translate(-122.104 -459.939)" fill="#fff" fill-rule="evenodd"/>
    </g>
  </g>
</svg>
