<svg xmlns="http://www.w3.org/2000/svg" width="243.295" height="60" viewBox="0 0 243.295 60">
  <g id="logo-svg2" transform="translate(0)" style="isolation: isolate">
    <path id="Caminho_21223" data-name="Caminho 21223" d="M36.118,18.607c-.012,2.461-.651,3.7-1.443,3.792-.518.062-1.116-.367-1.658-1.258a101.358,101.358,0,0,0-5.783-8.427.1.1,0,0,1,0-.017A39.846,39.846,0,0,1,31.514.178a42.842,42.842,0,0,1,4.6,18.429m-10.3-.143c1.939,1.737,2.47,3.126,2.036,3.88-.284.5-.992.73-2.028.607a95.178,95.178,0,0,0-10.45-.6l-.011-.016A49.693,49.693,0,0,1,7.135,9.166c6.562,1.554,13.666,4.8,18.686,9.3M19.2,27.453c2.591-.547,4.007-.1,4.325.759.209.559-.05,1.311-.784,2.112a100.311,100.311,0,0,0-6.783,8.325h-.02a50.309,50.309,0,0,1-15.755-1.1c5.194-4.6,12.234-8.664,19.016-10.095m2.96,11.087c1.133-2.411,2.343-3.318,3.175-3.065.547.164.948.826,1.1,1.889A94.709,94.709,0,0,0,28.4,47.3a.067.067,0,0,0-.011.015A55.209,55.209,0,0,1,18.67,58.394a41.932,41.932,0,0,1,3.491-19.855M31.973,42.5c-1.009-2.208-.933-3.7-.249-4.223.449-.338,1.162-.273,2,.219a60.036,60.036,0,0,0,7.9,4.014.089.089,0,0,0,0,.015,43.829,43.829,0,0,1,1.308,12.7A31.763,31.763,0,0,1,31.973,42.5m8.64-5.436c-2.09-.463-3.09-1.4-3.025-2.25.042-.559.528-1.1,1.384-1.475a60.373,60.373,0,0,0,7.663-3.983.046.046,0,0,0,.012.006,32.162,32.162,0,0,1,8.845,6.4,26.96,26.96,0,0,1-14.879,1.3m1.711-10.254c-1.655,1.449-2.929,1.694-3.487,1.1a2.2,2.2,0,0,1-.161-2.092A93.852,93.852,0,0,0,40.8,16.547a.059.059,0,0,0,.015,0A32.528,32.528,0,0,1,51.2,13.161a33.349,33.349,0,0,1-8.879,13.645" transform="translate(0.101 0.099)" fill="#146e37"/>
    <path id="Caminho_21224" data-name="Caminho 21224" d="M31.615.278a39.824,39.824,0,0,0-4.275,12.517l0,.017c-.55-.716-1.28-1.578-1.912-2.363-2.394-2.98-5.039-5.773-7.717-8.511A27.018,27.018,0,0,1,31.615.278M0,23.642c4.1-.5,8.213-.958,12.29-1.1,1.054-.036,2.248-.09,3.192-.091,0,0-.008-.011-.012-.015A49.764,49.764,0,0,1,7.237,9.264,30.612,30.612,0,0,0,0,23.642M8.07,51.658c1.928-3.512,3.956-6.992,6.178-10.271.59-.871,1.254-1.87,1.81-2.641a.076.076,0,0,1-.019,0,50.335,50.335,0,0,1-15.752-1.1A30.466,30.466,0,0,0,8.07,51.658m24.59,7.927c-1.24-3.127-2.43-6.273-3.377-9.445-.263-.882-.572-1.908-.789-2.738,0,.006-.008.009-.011.015A55.209,55.209,0,0,1,18.77,58.491a29.16,29.16,0,0,0,13.89,1.094M51.827,45.924a65.084,65.084,0,0,1-7.866-2.442c-.725-.29-1.57-.592-2.241-.876a.09.09,0,0,0,0,.016,43.818,43.818,0,0,1,1.308,12.694,29.318,29.318,0,0,0,8.8-9.391M55.4,23.205a70.483,70.483,0,0,1-6.662,4.951c-.648.417-1.387.919-2,1.292a.031.031,0,0,0,.012.006,32.206,32.206,0,0,1,8.845,6.4A40.2,40.2,0,0,0,55.4,23.205M42.178,4.161c-.2,3.287-.432,6.58-.877,9.8-.119.872-.257,1.889-.394,2.69l.014-.006A32.609,32.609,0,0,1,51.305,13.26a29.132,29.132,0,0,0-9.127-9.1" transform="translate(0 0.001)" fill="#64c832"/>
    <path id="Caminho_21225" data-name="Caminho 21225" d="M204.664,6.128,198.985,46.24h-7.227V41.757c-3.581,3.423-7.3,5.156-11.069,5.156a7.464,7.464,0,0,1-5.98-2.337c-2.128-2.427-2.75-6.712-1.907-13.1,1.664-11.978,6.133-14.382,12.809-14.382a59.645,59.645,0,0,1,8.344.634l1.644-11.6h9.065ZM189.076,23.7c-5.033,0-6.107.64-7.1,7.992-.51,3.769-.659,6.117.088,6.971a1.944,1.944,0,0,0,1.63.47c2.75-.054,4.935-1.506,7.756-4L193.041,23.7h-3.965Zm-81.643-6.607c-5.129,0-8.639,1.066-11.045,3.352-2.379,2.26-3.784,5.714-4.557,11.2-.775,5.451-.113,9.292,2.022,11.75,2.056,2.37,5.549,3.524,10.674,3.524a31.855,31.855,0,0,0,9.552-1.325l.234-.077.939-6.7-.6.1a63.091,63.091,0,0,1-8.671.5c-2.375,0-3.559-.291-4.22-1.041-.82-.928-.973-2.734-.533-6.235.79-6.49,2.806-7.54,7.326-7.54,1.832,0,8.671.119,8.671.119l.889-6.359a37.577,37.577,0,0,0-10.681-1.262m61.5,3.149c1.376,1.589,1.839,3.816,1.412,6.811-.882,6.038-5.115,7.538-11.661,8l-7.78.587c.209,3.27,1.914,3.884,5.124,3.884a97.625,97.625,0,0,0,10.528-.6l.439-.112.051.449a33.559,33.559,0,0,0,1.066,5.015l.1.339-.328.138c-3.541,1.489-9.121,2.165-12.81,2.165-5.227,0-8.823-1.189-10.991-3.626-2.21-2.486-2.969-6.365-2.321-11.863,1.3-10.717,5.436-14.332,16.39-14.332,5.416,0,8.941,1.029,10.78,3.149M157.384,29.4c2.642-.212,3.869-.728,4.176-3.234a2.24,2.24,0,0,0-.294-1.711c-.412-.449-1.385-.541-2.823-.541-.265,0-.549,0-.848.009-4.246,0-5.295,1.449-6.127,6.041ZM142.762,17.875h-1.749c-3.319,0-6.569,1.644-10.759,5.472V17.875h-7.171L119.114,46.24h9.077l2.2-16.314a10.26,10.26,0,0,1,6.686-3.174h1.937l.068-.308a30.888,30.888,0,0,1,3.332-7.974ZM47.476,16.589c-.759,5.853,1.286,9.314,6.843,11.574l7.337,2.921c2.329.852,2.844,1.286,2.544,3.591-.452,2.974-1.61,3.771-6.741,3.771H45l-1.108,7.788H57.826c10.858,0,14.5-2.559,15.6-10.954.679-5.3-.239-9.1-6.907-11.687L59.588,20.95c-2.687-1-3.183-1.406-2.826-3.758.411-2.621,1.378-3.189,3.391-3.329H75.026l1.11-7.789H62.859c-9.04,0-14.166,1.674-15.383,10.515M76.2,46.24h9.019L89.19,17.875H80.171ZM89.75,13.861,90.84,6.072H81.821l-1.089,7.789ZM204.51,46.24h9.019L217.5,17.875h-9.02Zm13.554-32.379,1.089-7.789h-9.019l-1.089,7.789Z" transform="translate(24.141 3.338)" fill="#64c832"/>
  </g>
</svg>
