<svg xmlns="http://www.w3.org/2000/svg" id="Camada_1" data-name="Camada 1" viewBox="79.54 250.62 1119.11 353.86">
  <defs>
    <style>
      .cls-1, .cls-2 {
        fill: #d80017;
      }

      .cls-3 {
        fill: #fff;
      }

      .cls-4, .cls-5 {
        fill: #00a5e7;
      }

      .cls-2 {
        font-size: 72.86px;
      }

      .cls-2, .cls-5 {
        font-family: SFIntellivised, 'SF Intellivised';
      }

      .cls-5 {
        font-size: 72.9px;
      }
    </style>
  </defs>
  <g>
    <path class="cls-3" d="M509.31,549.96c0,13.68-7.55,23.73-22.65,30.14-11.1,4.62-24.57,6.93-40.41,6.93h-55.29v-126.22h55.29c15.84,0,29.31,2.31,40.41,6.93,15.1,6.41,22.65,16.46,22.65,30.14,0,11.22-4.99,19.88-14.98,25.98,9.99,6.1,14.98,14.79,14.98,26.08ZM465.11,497.9c0-4.56-2.03-8.29-6.1-11.19-3.76-2.53-8.01-3.79-12.76-3.79h-11.1v29.96h11.1c4.75,0,9-1.26,12.76-3.79,4.07-2.83,6.1-6.57,6.1-11.19ZM465.11,549.96c0-4.56-2.03-8.29-6.1-11.19-3.76-2.53-8.01-3.79-12.76-3.79h-11.1v29.96h11.1c4.75,0,9-1.26,12.76-3.79,4.07-2.84,6.1-6.57,6.1-11.19Z"/>
    <path class="cls-3" d="M560.62,587.04h-39.48v-126.22h39.48v126.22Z"/>
  </g>
  <text class="cls-2" transform="translate(730.65 508.13)"><tspan x="0" y="0">INFORMÁTICA</tspan></text>
  <text class="cls-5" transform="translate(794.57 583.48)"><tspan x="0" y="0">SISTEMAS</tspan></text>
  <rect class="cls-1" x="79.54" y="464.14" width="110.02" height="110.02"/>
  <rect class="cls-1" x="184.06" y="326.98" width="87.94" height="87.94"/>
  <rect class="cls-1" x="261.11" y="441.48" width="72.96" height="72.96"/>
  <rect class="cls-1" x="322.42" y="346.09" width="69.13" height="69.13"/>
  <rect class="cls-1" x="427.36" y="285.59" width="71.74" height="71.74"/>
  <rect class="cls-1" x="517.1" y="388.22" width="43.93" height="43.93"/>
  <rect class="cls-1" x="329.16" y="250.62" width="55.66" height="55.66"/>
  <path class="cls-4" d="M632.09,540.05h25.71l33.41-22.52c.33-.23.17-.75-.23-.75h-58.99l.1,23.26Z"/>
  <path class="cls-3" d="M693.85,518.54l-34.65,23.88v22.52h-23.67c-8.14,0-13.65-5.15-16.55-15.44-1.54-5.73-2.31-14.27-2.31-25.61s.77-19.79,2.31-25.52c2.9-10.29,8.41-15.44,16.55-15.44h47.34v-22.1h-47.34c-17.32,0-32.18,6.19-44.57,18.59-12.33,12.33-18.49,27.15-18.49,44.48s6.16,32.21,18.49,44.66c12.45,12.33,27.31,18.49,44.57,18.49h63.15v-58.35c0-3.21-.29-9.66-4.83-10.15Z"/>
</svg>